<svg xmlns="http://www.w3.org/2000/svg" xmlns:xlink="http://www.w3.org/1999/xlink" width="1920" zoomAndPan="magnify" viewBox="0 0 1440 809.999993" height="1080" preserveAspectRatio="xMidYMid meet" version="1.0"><defs><filter x="0%" y="0%" width="100%" height="100%" id="06578c8919"><feColorMatrix values="0 0 0 0 1 0 0 0 0 1 0 0 0 0 1 0 0 0 1 0" color-interpolation-filters="sRGB"/></filter><mask id="2622575ef4"><g filter="url(#06578c8919)"><rect x="-144" width="1728" fill="#000000" y="-80.999999" height="971.999992" fill-opacity="0.25"/></g></mask><clipPath id="0d13366c19"><path d="M 16 24 L 150 24 L 150 106 L 16 106 Z M 16 24 " clip-rule="nonzero"/></clipPath><clipPath id="7028a06006"><path d="M 133.871094 1.101562 L 164.496094 67.914062 L 31.546875 128.855469 L 0.921875 62.039062 Z M 133.871094 1.101562 " clip-rule="nonzero"/></clipPath><clipPath id="da1bb1b69f"><path d="M 133.871094 1.101562 L 164.496094 67.914062 L 31.546875 128.855469 L 0.921875 62.039062 Z M 133.871094 1.101562 " clip-rule="nonzero"/></clipPath><clipPath id="8e98cffa36"><rect x="0" width="165" y="0" height="130"/></clipPath><mask id="d8a9cfefbe"><g filter="url(#06578c8919)"><rect x="-144" width="1728" fill="#000000" y="-80.999999" height="971.999992" fill-opacity="0.25"/></g></mask><clipPath id="09fce5edfa"><path d="M 20 12 L 116 12 L 116 188 L 20 188 Z M 20 12 " clip-rule="nonzero"/></clipPath><clipPath id="c2cf40f88c"><path d="M 0.464844 23.9375 L 88.890625 0.414062 L 135.554688 175.8125 L 47.128906 199.335938 Z M 0.464844 23.9375 " clip-rule="nonzero"/></clipPath><clipPath id="d9303aa695"><path d="M 0.464844 23.9375 L 88.890625 0.414062 L 135.554688 175.8125 L 47.128906 199.335938 Z M 0.464844 23.9375 " clip-rule="nonzero"/></clipPath><clipPath id="22b6a8b0d0"><rect x="0" width="136" y="0" height="200"/></clipPath><mask id="a5d4d9a92e"><g filter="url(#06578c8919)"><rect x="-144" width="1728" fill="#000000" y="-80.999999" height="971.999992" fill-opacity="0.25"/></g></mask><clipPath id="e74f9a35ea"><path d="M 21 27 L 142 27 L 142 117 L 21 117 Z M 21 27 " clip-rule="nonzero"/></clipPath><clipPath id="378310d0b7"><path d="M 121.023438 0.34375 L 162.871094 60.769531 L 42.640625 144.035156 L 0.792969 83.613281 Z M 121.023438 0.34375 " clip-rule="nonzero"/></clipPath><clipPath id="dadc749055"><path d="M 121.023438 0.34375 L 162.871094 60.769531 L 42.640625 144.035156 L 0.792969 83.613281 Z M 121.023438 0.34375 " clip-rule="nonzero"/></clipPath><clipPath id="3eb146c4e2"><rect x="0" width="164" y="0" height="145"/></clipPath><mask id="ee1f840fcb"><g filter="url(#06578c8919)"><rect x="-144" width="1728" fill="#000000" y="-80.999999" height="971.999992" fill-opacity="0.25"/></g></mask><clipPath id="af6c781f5f"><path d="M 29 41 L 225 41 L 225 172 L 29 172 Z M 29 41 " clip-rule="nonzero"/></clipPath><clipPath id="5b60c81338"><path d="M 1.15625 98.847656 L 57.910156 0.84375 L 252.617188 113.601562 L 195.863281 211.605469 Z M 1.15625 98.847656 " clip-rule="nonzero"/></clipPath><clipPath id="7934565db2"><path d="M 1.15625 98.847656 L 57.910156 0.84375 L 252.617188 113.601562 L 195.863281 211.605469 Z M 1.15625 98.847656 " clip-rule="nonzero"/></clipPath><clipPath id="2b69687c36"><rect x="0" width="254" y="0" height="212"/></clipPath><mask id="1e5b6411ac"><g filter="url(#06578c8919)"><rect x="-144" width="1728" fill="#000000" y="-80.999999" height="971.999992" fill-opacity="0.25"/></g></mask><clipPath id="c2339c6a94"><path d="M 23 33 L 194 33 L 194 143 L 23 143 Z M 23 33 " clip-rule="nonzero"/></clipPath><clipPath id="1638220927"><path d="M 0.800781 86.390625 L 45.789062 0.738281 L 215.769531 90.023438 L 170.777344 175.675781 Z M 0.800781 86.390625 " clip-rule="nonzero"/></clipPath><clipPath id="f5ad08a638"><path d="M 0.800781 86.390625 L 45.789062 0.738281 L 215.769531 90.023438 L 170.777344 175.675781 Z M 0.800781 86.390625 " clip-rule="nonzero"/></clipPath><clipPath id="c9d8284b4c"><rect x="0" width="217" y="0" height="177"/></clipPath><mask id="e307525e7b"><g filter="url(#06578c8919)"><rect x="-144" width="1728" fill="#000000" y="-80.999999" height="971.999992" fill-opacity="0.25"/></g></mask><clipPath id="bf7de5cbeb"><path d="M 25 27 L 135 27 L 135 126 L 25 126 Z M 25 27 " clip-rule="nonzero"/></clipPath><clipPath id="2981540616"><path d="M 110.371094 0.953125 L 159.046875 56.027344 L 49.460938 152.878906 L 0.789062 97.808594 Z M 110.371094 0.953125 " clip-rule="nonzero"/></clipPath><clipPath id="a803559caf"><path d="M 110.371094 0.953125 L 159.046875 56.027344 L 49.460938 152.878906 L 0.789062 97.808594 Z M 110.371094 0.953125 " clip-rule="nonzero"/></clipPath><clipPath id="f2f415cefc"><rect x="0" width="160" y="0" height="154"/></clipPath><mask id="b2847350f8"><g filter="url(#06578c8919)"><rect x="-144" width="1728" fill="#000000" y="-80.999999" height="971.999992" fill-opacity="0.25"/></g></mask><clipPath id="1c6cda9ada"><path d="M 7 13 L 152 13 L 152 89 L 7 89 Z M 7 13 " clip-rule="nonzero"/></clipPath><clipPath id="db4040cda5"><path d="M 0.617188 73.015625 L 14.652344 0.867188 L 158.210938 28.796875 L 144.175781 100.945312 Z M 0.617188 73.015625 " clip-rule="nonzero"/></clipPath><clipPath id="7f3a28bdde"><path d="M 0.617188 73.015625 L 14.652344 0.867188 L 158.210938 28.796875 L 144.175781 100.945312 Z M 0.617188 73.015625 " clip-rule="nonzero"/></clipPath><clipPath id="c1a6461a94"><rect x="0" width="159" y="0" height="102"/></clipPath><mask id="2b2b1cd0ab"><g filter="url(#06578c8919)"><rect x="-144" width="1728" fill="#000000" y="-80.999999" height="971.999992" fill-opacity="0.25"/></g></mask><clipPath id="91faea5570"><path d="M 4 8 L 214 8 L 214 115 L 4 115 Z M 4 8 " clip-rule="nonzero"/></clipPath><clipPath id="2080d60911"><path d="M 8.203125 122.296875 L 0.363281 16.839844 L 209.785156 1.273438 L 217.625 106.734375 Z M 8.203125 122.296875 " clip-rule="nonzero"/></clipPath><clipPath id="fdf7f76d31"><path d="M 8.203125 122.296875 L 0.363281 16.839844 L 209.785156 1.273438 L 217.625 106.734375 Z M 8.203125 122.296875 " clip-rule="nonzero"/></clipPath><clipPath id="c2c3c43b7d"><rect x="0" width="218" y="0" height="123"/></clipPath><mask id="1f34ef8188"><g filter="url(#06578c8919)"><rect x="-144" width="1728" fill="#000000" y="-80.999999" height="971.999992" fill-opacity="0.25"/></g></mask><clipPath id="f3f1a04ca8"><path d="M 29 31 L 152 31 L 152 146 L 29 146 Z M 29 31 " clip-rule="nonzero"/></clipPath><clipPath id="ab981291c0"><path d="M 122.261719 1.003906 L 179.738281 62.261719 L 58.3125 176.1875 L 0.839844 114.929688 Z M 122.261719 1.003906 " clip-rule="nonzero"/></clipPath><clipPath id="e96f46d66a"><path d="M 122.261719 1.003906 L 179.738281 62.261719 L 58.3125 176.1875 L 0.839844 114.929688 Z M 122.261719 1.003906 " clip-rule="nonzero"/></clipPath><clipPath id="3379fef713"><rect x="0" width="180" y="0" height="177"/></clipPath><mask id="0268597db7"><g filter="url(#06578c8919)"><rect x="-144" width="1728" fill="#000000" y="-80.999999" height="971.999992" fill-opacity="0.25"/></g></mask><clipPath id="2a8aaaf878"><path d="M 2 3 L 213 3 L 213 110 L 2 110 Z M 2 3 " clip-rule="nonzero"/></clipPath><clipPath id="5b1b0041d4"><path d="M 0.578125 106.535156 L 3.726562 0.832031 L 213.632812 7.082031 L 210.484375 112.785156 Z M 0.578125 106.535156 " clip-rule="nonzero"/></clipPath><clipPath id="b2253bae12"><path d="M 0.578125 106.535156 L 3.726562 0.832031 L 213.632812 7.082031 L 210.484375 112.785156 Z M 0.578125 106.535156 " clip-rule="nonzero"/></clipPath><clipPath id="ee0bedbd71"><rect x="0" width="214" y="0" height="114"/></clipPath><mask id="ef72bacbeb"><g filter="url(#06578c8919)"><rect x="-144" width="1728" fill="#000000" y="-80.999999" height="971.999992" fill-opacity="0.25"/></g></mask><clipPath id="594b2fcf0e"><path d="M 4 7 L 185 7 L 185 99 L 4 99 Z M 4 7 " clip-rule="nonzero"/></clipPath><clipPath id="5fc86c1c3d"><path d="M 7.804688 104.667969 L 1.078125 14.167969 L 181.332031 0.773438 L 188.054688 91.273438 Z M 7.804688 104.667969 " clip-rule="nonzero"/></clipPath><clipPath id="30c51b714c"><path d="M 7.804688 104.667969 L 1.078125 14.167969 L 181.332031 0.773438 L 188.054688 91.273438 Z M 7.804688 104.667969 " clip-rule="nonzero"/></clipPath><clipPath id="7b60bac66f"><rect x="0" width="189" y="0" height="106"/></clipPath><mask id="bb784f07ef"><g filter="url(#06578c8919)"><rect x="-144" width="1728" fill="#000000" y="-80.999999" height="971.999992" fill-opacity="0.25"/></g></mask><clipPath id="8f02a0feb6"><path d="M 10 15 L 98 15 L 98 68 L 10 68 Z M 10 15 " clip-rule="nonzero"/></clipPath><clipPath id="058126e25b"><path d="M 20.042969 82.945312 L 0.527344 39.089844 L 87.546875 0.359375 L 107.066406 44.214844 Z M 20.042969 82.945312 " clip-rule="nonzero"/></clipPath><clipPath id="5c0b2250ca"><path d="M 20.042969 82.945312 L 0.527344 39.089844 L 87.546875 0.359375 L 107.066406 44.214844 Z M 20.042969 82.945312 " clip-rule="nonzero"/></clipPath><clipPath id="25e61fd48e"><rect x="0" width="108" y="0" height="84"/></clipPath><mask id="cdffcdf8b2"><g filter="url(#06578c8919)"><rect x="-144" width="1728" fill="#000000" y="-80.999999" height="971.999992" fill-opacity="0.25"/></g></mask><clipPath id="36a18203e9"><path d="M 1 2 L 73 2 L 73 39 L 1 39 Z M 1 2 " clip-rule="nonzero"/></clipPath><clipPath id="66c697be01"><path d="M 71.777344 0.949219 L 73.109375 36.925781 L 1.90625 39.5625 L 0.574219 3.589844 Z M 71.777344 0.949219 " clip-rule="nonzero"/></clipPath><clipPath id="44bd7309a3"><path d="M 71.777344 0.949219 L 73.109375 36.925781 L 1.90625 39.5625 L 0.574219 3.589844 Z M 71.777344 0.949219 " clip-rule="nonzero"/></clipPath><clipPath id="b7256d45b9"><rect x="0" width="74" y="0" height="40"/></clipPath><mask id="ec1b5d9184"><g filter="url(#06578c8919)"><rect x="-144" width="1728" fill="#000000" y="-80.999999" height="971.999992" fill-opacity="0.25"/></g></mask><clipPath id="9a1c37482e"><path d="M 4 9 L 229 9 L 229 123 L 4 123 Z M 4 9 " clip-rule="nonzero"/></clipPath><clipPath id="a8d0b50a61"><path d="M 0.191406 114.164062 L 8.410156 1.210938 L 232.816406 17.546875 L 224.597656 130.496094 Z M 0.191406 114.164062 " clip-rule="nonzero"/></clipPath><clipPath id="415833364f"><path d="M 0.191406 114.164062 L 8.410156 1.210938 L 232.816406 17.546875 L 224.597656 130.496094 Z M 0.191406 114.164062 " clip-rule="nonzero"/></clipPath><clipPath id="c6620b5612"><rect x="0" width="234" y="0" height="131"/></clipPath><mask id="e07bfe4c60"><g filter="url(#06578c8919)"><rect x="-144" width="1728" fill="#000000" y="-80.999999" height="971.999992" fill-opacity="0.25"/></g></mask><clipPath id="b4860abbb0"><path d="M 7 12 L 198 12 L 198 111 L 7 111 Z M 7 12 " clip-rule="nonzero"/></clipPath><clipPath id="6b43af8d49"><path d="M 13.453125 122.230469 L 0.796875 26.3125 L 191.148438 1.195312 L 203.800781 97.113281 Z M 13.453125 122.230469 " clip-rule="nonzero"/></clipPath><clipPath id="e2baccb175"><path d="M 13.453125 122.230469 L 0.796875 26.3125 L 191.148438 1.195312 L 203.800781 97.113281 Z M 13.453125 122.230469 " clip-rule="nonzero"/></clipPath><clipPath id="24deac3a89"><rect x="0" width="205" y="0" height="123"/></clipPath><mask id="d0d0694157"><g filter="url(#06578c8919)"><rect x="-144" width="1728" fill="#000000" y="-80.999999" height="971.999992" fill-opacity="0.25"/></g></mask><clipPath id="177b93dd28"><path d="M 0 0.765625 L 154.039062 0.765625 L 154.039062 92.265625 L 0 92.265625 Z M 0 0.765625 " clip-rule="nonzero"/></clipPath><clipPath id="a7fec0f9e4"><rect x="0" width="155" y="0" height="93"/></clipPath><mask id="1ac52d8fb7"><g filter="url(#06578c8919)"><rect x="-144" width="1728" fill="#000000" y="-80.999999" height="971.999992" fill-opacity="0.25"/></g></mask><clipPath id="aabb9399ae"><path d="M 14 14 L 70 14 L 70 70 L 14 70 Z M 14 14 " clip-rule="nonzero"/></clipPath><clipPath id="befdccb581"><path d="M 0.398438 28.410156 L 27.976562 0.832031 L 83.128906 55.988281 L 55.554688 83.566406 Z M 0.398438 28.410156 " clip-rule="nonzero"/></clipPath><clipPath id="2823338b24"><path d="M 0.398438 28.410156 L 27.976562 0.832031 L 83.128906 55.988281 L 55.554688 83.566406 Z M 0.398438 28.410156 " clip-rule="nonzero"/></clipPath><clipPath id="7253672820"><rect x="0" width="84" y="0" height="84"/></clipPath></defs><rect x="-144" width="1728" fill="#ffffff" y="-80.999999" height="971.999992" fill-opacity="1"/><rect x="-144" width="1728" fill="#ffffff" y="-80.999999" height="971.999992" fill-opacity="1"/><g mask="url(#2622575ef4)"><g transform="matrix(1, 0, 0, 1, 249, 170)"><g clip-path="url(#8e98cffa36)"><g clip-path="url(#0d13366c19)"><g clip-path="url(#7028a06006)"><g clip-path="url(#da1bb1b69f)"><path fill="#cfc3e0" d="M 98.003906 98.382812 C 61.285156 115.210938 16.214844 95.457031 16.214844 95.457031 C 16.214844 95.457031 30.667969 48.417969 67.386719 31.589844 C 104.101562 14.757812 149.175781 34.511719 149.175781 34.511719 C 149.175781 34.511719 134.71875 81.550781 98.003906 98.382812 Z M 98.003906 98.382812 " fill-opacity="1" fill-rule="nonzero"/></g></g></g></g></g></g><g mask="url(#d8a9cfefbe)"><g transform="matrix(1, 0, 0, 1, 63, 346)"><g clip-path="url(#22b6a8b0d0)"><g clip-path="url(#09fce5edfa)"><g clip-path="url(#c2cf40f88c)"><g clip-path="url(#d9303aa695)"><path fill="#cddb71" d="M 112.210938 88.136719 C 125.097656 136.578125 91.347656 187.601562 91.347656 187.601562 C 91.347656 187.601562 36.707031 160.09375 23.820312 111.652344 C 10.933594 63.210938 44.683594 12.1875 44.683594 12.1875 C 44.683594 12.1875 99.324219 39.699219 112.210938 88.136719 Z M 112.210938 88.136719 " fill-opacity="1" fill-rule="nonzero"/></g></g></g></g></g></g><g mask="url(#a5d4d9a92e)"><g transform="matrix(1, 0, 0, 1, 124, 435)"><g clip-path="url(#3eb146c4e2)"><g clip-path="url(#e74f9a35ea)"><g clip-path="url(#378310d0b7)"><g clip-path="url(#dadc749055)"><path fill="#e30f73" d="M 102.734375 102.402344 C 69.53125 125.398438 21.695312 113.835938 21.695312 113.835938 C 21.695312 113.835938 27.695312 64.992188 60.902344 41.996094 C 94.105469 19.003906 141.9375 30.5625 141.9375 30.5625 C 141.9375 30.5625 135.9375 79.40625 102.734375 102.402344 Z M 102.734375 102.402344 " fill-opacity="1" fill-rule="nonzero"/></g></g></g></g></g></g><g mask="url(#ee1f840fcb)"><g transform="matrix(1, 0, 0, 1, 249, 317)"><g clip-path="url(#2b69687c36)"><g clip-path="url(#af6c781f5f)"><g clip-path="url(#5b60c81338)"><g clip-path="url(#7934565db2)"><path fill="#ec7124" d="M 155.277344 57.25 C 209.046875 88.390625 224.269531 162.621094 224.269531 162.621094 C 224.269531 162.621094 152.308594 186.363281 98.539062 155.226562 C 44.765625 124.085938 29.546875 49.855469 29.546875 49.855469 C 29.546875 49.855469 101.503906 26.109375 155.277344 57.25 Z M 155.277344 57.25 " fill-opacity="1" fill-rule="nonzero"/></g></g></g></g></g></g><g mask="url(#1e5b6411ac)"><g transform="matrix(1, 0, 0, 1, 286, 546)"><g clip-path="url(#c9d8284b4c)"><g clip-path="url(#c2339c6a94)"><g clip-path="url(#1638220927)"><g clip-path="url(#f5ad08a638)"><path fill="#0e9046" d="M 130.789062 45.40625 C 177.734375 70.0625 193.300781 132.863281 193.300781 132.863281 C 193.300781 132.863281 132.757812 155.683594 85.816406 131.027344 C 38.871094 106.371094 23.304688 43.570312 23.304688 43.570312 C 23.304688 43.570312 83.847656 20.746094 130.789062 45.40625 Z M 130.789062 45.40625 " fill-opacity="1" fill-rule="nonzero"/></g></g></g></g></g></g><g mask="url(#e307525e7b)"><g transform="matrix(1, 0, 0, 1, 495, 502)"><g clip-path="url(#f2f415cefc)"><g clip-path="url(#bf7de5cbeb)"><g clip-path="url(#2981540616)"><g clip-path="url(#a803559caf)"><path fill="#df2328" d="M 104.234375 104.453125 C 73.972656 131.203125 25.109375 125.359375 25.109375 125.359375 C 25.109375 125.359375 25.3125 76.148438 55.574219 49.398438 C 85.839844 22.652344 134.699219 28.496094 134.699219 28.496094 C 134.699219 28.496094 134.496094 77.707031 104.234375 104.453125 Z M 104.234375 104.453125 " fill-opacity="1" fill-rule="nonzero"/></g></g></g></g></g></g><g mask="url(#b2847350f8)"><g transform="matrix(1, 0, 0, 1, 538, 379)"><g clip-path="url(#c1a6461a94)"><g clip-path="url(#1c6cda9ada)"><g clip-path="url(#db4040cda5)"><g clip-path="url(#7f3a28bdde)"><path fill="#cddb71" d="M 86.445312 14.847656 C 126.09375 22.558594 151.214844 64.875 151.214844 64.875 C 151.214844 64.875 112.058594 94.683594 72.414062 86.96875 C 32.769531 79.257812 7.644531 36.941406 7.644531 36.941406 C 7.644531 36.941406 46.800781 7.132812 86.445312 14.847656 Z M 86.445312 14.847656 " fill-opacity="1" fill-rule="nonzero"/></g></g></g></g></g></g><g mask="url(#2b2b1cd0ab)"><g transform="matrix(1, 0, 0, 1, 718, 484)"><g clip-path="url(#c2c3c43b7d)"><g clip-path="url(#91faea5570)"><g clip-path="url(#2080d60911)"><g clip-path="url(#fdf7f76d31)"><path fill="#cfc3e0" d="M 105.101562 9.066406 C 162.9375 4.769531 213.738281 54 213.738281 54 C 213.738281 54 170.769531 110.203125 112.933594 114.5 C 55.097656 118.796875 4.296875 69.566406 4.296875 69.566406 C 4.296875 69.566406 47.265625 13.367188 105.101562 9.066406 Z M 105.101562 9.066406 " fill-opacity="1" fill-rule="nonzero"/></g></g></g></g></g></g><g mask="url(#1f34ef8188)"><g transform="matrix(1, 0, 0, 1, 756, 379)"><g clip-path="url(#3379fef713)"><g clip-path="url(#f3f1a04ca8)"><g clip-path="url(#ab981291c0)"><g clip-path="url(#e96f46d66a)"><path fill="#fdd20c" d="M 119 119.226562 C 85.46875 150.691406 29.558594 145.578125 29.558594 145.578125 C 29.558594 145.578125 28.011719 89.453125 61.546875 57.992188 C 95.078125 26.527344 150.992188 31.640625 150.992188 31.640625 C 150.992188 31.640625 152.535156 87.765625 119 119.226562 Z M 119 119.226562 " fill-opacity="1" fill-rule="nonzero"/></g></g></g></g></g></g><g mask="url(#0268597db7)"><g transform="matrix(1, 0, 0, 1, 627, 608)"><g clip-path="url(#ee0bedbd71)"><g clip-path="url(#2a8aaaf878)"><g clip-path="url(#5b1b0041d4)"><g clip-path="url(#b2253bae12)"><path fill="#ec7124" d="M 108.699219 3.972656 C 166.671875 5.699219 212.089844 59.9375 212.089844 59.9375 C 212.089844 59.9375 163.523438 111.375 105.554688 109.648438 C 47.585938 107.921875 2.164062 53.683594 2.164062 53.683594 C 2.164062 53.683594 50.730469 2.246094 108.699219 3.972656 Z M 108.699219 3.972656 " fill-opacity="1" fill-rule="nonzero"/></g></g></g></g></g></g><g mask="url(#ef72bacbeb)"><g transform="matrix(1, 0, 0, 1, 1000, 578)"><g clip-path="url(#7b60bac66f)"><g clip-path="url(#594b2fcf0e)"><g clip-path="url(#5fc86c1c3d)"><g clip-path="url(#30c51b714c)"><path fill="#e30f73" d="M 91.226562 7.480469 C 141.003906 3.78125 184.722656 46.019531 184.722656 46.019531 C 184.722656 46.019531 147.730469 94.257812 97.949219 97.957031 C 48.167969 101.65625 4.453125 59.417969 4.453125 59.417969 C 4.453125 59.417969 41.445312 11.179688 91.226562 7.480469 Z M 91.226562 7.480469 " fill-opacity="1" fill-rule="nonzero"/></g></g></g></g></g></g><g mask="url(#bb784f07ef)"><g transform="matrix(1, 0, 0, 1, 954, 622)"><g clip-path="url(#25e61fd48e)"><g clip-path="url(#8f02a0feb6)"><g clip-path="url(#058126e25b)"><g clip-path="url(#5c0b2250ca)"><path fill="#0e9046" d="M 44.046875 19.722656 C 68.082031 9.027344 97.320312 22.28125 97.320312 22.28125 C 97.320312 22.28125 87.59375 52.875 63.5625 63.570312 C 39.53125 74.265625 10.292969 61.015625 10.292969 61.015625 C 10.292969 61.015625 20.015625 30.421875 44.046875 19.722656 Z M 44.046875 19.722656 " fill-opacity="1" fill-rule="nonzero"/></g></g></g></g></g></g><g mask="url(#cdffcdf8b2)"><g transform="matrix(1, 0, 0, 1, 117, 595)"><g clip-path="url(#b7256d45b9)"><g clip-path="url(#36a18203e9)"><g clip-path="url(#66c697be01)"><g clip-path="url(#44bd7309a3)"><path fill="#fdd20c" d="M 37.5 38.242188 C 17.835938 38.972656 1.230469 21.578125 1.230469 21.578125 C 1.230469 21.578125 16.503906 3 36.167969 2.273438 C 55.832031 1.542969 72.4375 18.9375 72.4375 18.9375 C 72.4375 18.9375 57.164062 37.515625 37.5 38.242188 Z M 37.5 38.242188 " fill-opacity="1" fill-rule="nonzero"/></g></g></g></g></g></g><g mask="url(#ec1b5d9184)"><g transform="matrix(1, 0, 0, 1, 341, 264)"><g clip-path="url(#c6620b5612)"><g clip-path="url(#9a1c37482e)"><g clip-path="url(#a8d0b50a61)"><g clip-path="url(#415833364f)"><path fill="#e30f73" d="M 120.636719 9.398438 C 182.613281 13.90625 228.742188 74.023438 228.742188 74.023438 C 228.742188 74.023438 174.394531 126.824219 112.417969 122.316406 C 50.445312 117.804688 4.316406 57.6875 4.316406 57.6875 C 4.316406 57.6875 58.664062 4.886719 120.636719 9.398438 Z M 120.636719 9.398438 " fill-opacity="1" fill-rule="nonzero"/></g></g></g></g></g></g><g mask="url(#e07bfe4c60)"><g transform="matrix(1, 0, 0, 1, 159, 648)"><g clip-path="url(#24deac3a89)"><g clip-path="url(#b4860abbb0)"><g clip-path="url(#6b43af8d49)"><g clip-path="url(#e2baccb175)"><path fill="#cfc3e0" d="M 95.996094 13.765625 C 148.5625 6.832031 197.503906 49.152344 197.503906 49.152344 C 197.503906 49.152344 161.214844 102.71875 108.644531 109.652344 C 56.078125 116.589844 7.136719 74.269531 7.136719 74.269531 C 7.136719 74.269531 43.425781 20.703125 95.996094 13.765625 Z M 95.996094 13.765625 " fill-opacity="1" fill-rule="nonzero"/></g></g></g></g></g></g><g mask="url(#d0d0694157)"><g transform="matrix(1, 0, 0, 1, 0, 654)"><g clip-path="url(#a7fec0f9e4)"><g clip-path="url(#177b93dd28)"><path fill="#ec7124" d="M 63.308594 0.78125 C 113.433594 0.78125 154.066406 46.515625 154.066406 46.515625 C 154.066406 46.515625 113.433594 92.246094 63.308594 92.246094 C 13.183594 92.246094 -27.449219 46.515625 -27.449219 46.515625 C -27.449219 46.515625 13.183594 0.78125 63.308594 0.78125 Z M 63.308594 0.78125 " fill-opacity="1" fill-rule="nonzero"/></g></g></g></g><g mask="url(#1ac52d8fb7)"><g transform="matrix(1, 0, 0, 1, 106, 188)"><g clip-path="url(#7253672820)"><g clip-path="url(#aabb9399ae)"><g clip-path="url(#befdccb581)"><g clip-path="url(#2823338b24)"><path fill="#0e9046" d="M 55.554688 28.421875 C 70.785156 43.652344 69.351562 69.785156 69.351562 69.785156 C 69.351562 69.785156 43.21875 71.222656 27.984375 55.988281 C 12.753906 40.757812 14.191406 14.625 14.191406 14.625 C 14.191406 14.625 40.324219 13.1875 55.554688 28.421875 Z M 55.554688 28.421875 " fill-opacity="1" fill-rule="nonzero"/></g></g></g></g></g></g></svg>